<svg width="64" height="64" viewBox="0 0 64 64" fill="none" xmlns="http://www.w3.org/2000/svg">
  <!-- Modern and classic blood drop icon -->
  <path d="M32 8C28 8 24 10 22 14C20 18 18 22 18 28C18 36 22 42 28 48C30 50 32 52 32 52C32 52 34 50 36 48C42 42 46 36 46 28C46 22 44 18 42 14C40 10 36 8 32 8Z" fill="#000000"/>
  <path d="M32 12C29 12 26 13.5 24.5 16.5C23 19.5 21.5 22.5 21.5 28C21.5 34.5 24.5 39.5 29.5 44C30.5 45 31.5 46 32 46.5C32.5 46 33.5 45 34.5 44C39.5 39.5 42.5 34.5 42.5 28C42.5 22.5 41 19.5 39.5 16.5C38 13.5 35 12 32 12Z" fill="#DC2626"/>
  <circle cx="32" cy="26" r="3" fill="#FFFFFF"/>
</svg>
